<svg width="20" height="20" viewBox="0 0 20 20" fill="none" xmlns="http://www.w3.org/2000/svg">
<path d="M1.66669 5.00001C1.66669 3.42866 1.66669 2.64298 2.15485 2.15483C2.643 1.66667 3.42867 1.66667 5.00002 1.66667C6.57137 1.66667 7.35705 1.66667 7.8452 2.15483C8.33335 2.64298 8.33335 3.42866 8.33335 5.00001V6.66667C8.33335 8.23802 8.33335 9.02367 7.8452 9.51184C7.35705 10 6.57137 10 5.00002 10C3.42867 10 2.643 10 2.15485 9.51184C1.66669 9.02367 1.66669 8.23802 1.66669 6.66667V5.00001Z" stroke="#434343" stroke-width="1.5"/>
<path d="M1.66669 15.8333C1.66669 15.0567 1.66669 14.6685 1.79355 14.3622C1.96271 13.9538 2.28717 13.6293 2.69555 13.4602C3.00184 13.3333 3.39012 13.3333 4.16669 13.3333H5.83335C6.60992 13.3333 6.9982 13.3333 7.3045 13.4602C7.71287 13.6293 8.03733 13.9538 8.20649 14.3622C8.33335 14.6685 8.33335 15.0567 8.33335 15.8333C8.33335 16.6099 8.33335 16.9982 8.20649 17.3045C8.03733 17.7128 7.71287 18.0373 7.3045 18.2065C6.9982 18.3333 6.60992 18.3333 5.83335 18.3333H4.16669C3.39012 18.3333 3.00184 18.3333 2.69555 18.2065C2.28717 18.0373 1.96271 17.7128 1.79355 17.3045C1.66669 16.9982 1.66669 16.6099 1.66669 15.8333Z" stroke="#434343" stroke-width="1.5"/>
<path d="M11.6667 13.3333C11.6667 11.762 11.6667 10.9763 12.1549 10.4882C12.643 10 13.4287 10 15 10C16.5714 10 17.357 10 17.8452 10.4882C18.3334 10.9763 18.3334 11.762 18.3334 13.3333V15C18.3334 16.5713 18.3334 17.357 17.8452 17.8452C17.357 18.3333 16.5714 18.3333 15 18.3333C13.4287 18.3333 12.643 18.3333 12.1549 17.8452C11.6667 17.357 11.6667 16.5713 11.6667 15V13.3333Z" stroke="#434343" stroke-width="1.5"/>
<path d="M11.6667 4.16667C11.6667 3.39011 11.6667 3.00182 11.7935 2.69553C11.9627 2.28716 12.2872 1.9627 12.6955 1.79354C13.0019 1.66667 13.3901 1.66667 14.1667 1.66667H15.8334C16.6099 1.66667 16.9982 1.66667 17.3045 1.79354C17.7129 1.9627 18.0374 2.28716 18.2065 2.69553C18.3334 3.00182 18.3334 3.39011 18.3334 4.16667C18.3334 4.94324 18.3334 5.33152 18.2065 5.63781C18.0374 6.04619 17.7129 6.37065 17.3045 6.53981C16.9982 6.66667 16.6099 6.66667 15.8334 6.66667H14.1667C13.3901 6.66667 13.0019 6.66667 12.6955 6.53981C12.2872 6.37065 11.9627 6.04619 11.7935 5.63781C11.6667 5.33152 11.6667 4.94324 11.6667 4.16667Z" stroke="#434343" stroke-width="1.5"/>
</svg>
