<svg width="20" height="20" viewBox="0 0 20 20" fill="none" xmlns="http://www.w3.org/2000/svg">
<path d="M2.91669 7.80702C2.91669 4.91243 2.91669 3.46514 3.77096 2.56591C4.62523 1.66667 6.00016 1.66667 8.75002 1.66667H11.25C13.9999 1.66667 15.3748 1.66667 16.2291 2.56591C17.0834 3.46514 17.0834 4.91243 17.0834 7.80702V12.193C17.0834 15.0876 17.0834 16.5348 16.2291 17.4341C15.3748 18.3333 13.9999 18.3333 11.25 18.3333H8.75002C6.00016 18.3333 4.62523 18.3333 3.77096 17.4341C2.91669 16.5348 2.91669 15.0876 2.91669 12.193V7.80702Z" stroke="#434343" stroke-width="1.5" stroke-linecap="round" stroke-linejoin="round"/>
<path d="M11.25 9.16667H14.1667" stroke="#434343" stroke-width="1.5" stroke-linecap="round"/>
<path d="M5.83331 9.99999C5.83331 9.99999 6.24998 9.99999 6.66665 10.8333C6.66665 10.8333 7.99018 8.74999 9.16665 8.33333" stroke="#434343" stroke-width="1.5" stroke-linecap="round" stroke-linejoin="round"/>
<path d="M11.25 14.1667H14.1667" stroke="#434343" stroke-width="1.5" stroke-linecap="round"/>
<path d="M6.66669 1.66667L6.73519 2.07767C6.90147 3.07537 6.98461 3.57422 7.3343 3.87045C7.68398 4.16667 8.1897 4.16667 9.20119 4.16667H10.7989C11.8104 4.16667 12.3161 4.16667 12.6658 3.87045C13.0154 3.57422 13.0986 3.07537 13.2649 2.07767L13.3334 1.66667" stroke="#434343" stroke-width="1.5" stroke-linecap="round" stroke-linejoin="round"/>
<path d="M6.66669 14.1667H7.50002" stroke="#434343" stroke-width="2" stroke-linecap="round" stroke-linejoin="round"/>
</svg>
